<svg id="basket" viewBox="0 0 78.53 80"><circle cx="23.66" cy="71" r="9"></circle><path d="M62.69 67.19a3.62 3.62 0 0 0-4.19-2.93L37.28 68a14.14 14.14 0 0 1 .33 3 13.79 13.79 0 0 1-.73 4.42l22.59-4a3.69 3.69 0 0 0 3.22-4.23zM11.2 25.23l5.9 33.46a13.84 13.84 0 0 1 6.56-1.64h.51l-5.28-29.89-1-5.45a3.63 3.63 0 0 0-2.41-2.8l-12.3-4.15A2.41 2.41 0 0 0 0 17.46l.29 1.44a3.61 3.61 0 0 0 2.41 2.8l7.7 2.6a1.19 1.19 0 0 1 .8.93zM78.45 50.75l-8.22-46.6A5 5 0 0 0 64.41.08L26 6.85a5 5 0 0 0-4.08 5.82L30 58.59a14 14 0 0 1 5.34 4.81 4 4 0 0 0 .6 0l38.43-6.78a5 5 0 0 0 4.08-5.87z"></path></svg>