<svg id="wa-logo-neg" viewBox="0 0 316.7 90"><path d="M300.4 58.4c0-4.6 3.7-8.3 8.3-8.3V17c0-5.5-4.5-10-10-10h-140c-5.5 0-10 4.5-10 10v55.7c0 5.5 4.5 10 10 10h140c5.5 0 10-4.5 10-10v-6.1c-4.5.1-8.3-3.6-8.3-8.2z" fill="#fff"></path><path d="M231.4 33.3c-.1-.1-.2-.2-.4-.2h-5.3c-.2 0-.4.2-.5.4l-4.4 19.1c-.1.3-.3.5-.6.5s-.6-.2-.6-.5l-5.3-19.1c-.1-.2-.3-.4-.5-.4H208c-.2 0-.4.2-.5.4l-4.9 19.3c-.1.3-.4.5-.6.5-.3 0-.6-.2-.6-.5L197 33.5c-.1-.2-.3-.4-.5-.4h-5.4c-.2 0-.3.1-.4.2s-.1.3-.1.5l8.1 28c.1.2.3.4.5.4h5.8c.2 0 .4-.2.5-.4l4.9-18.9c.1-.3.3-.5.6-.5s.6.2.6.5l5.3 18.9c.1.2.3.4.5.4h5.8c.2 0 .4-.2.5-.4l8.1-28c-.3-.2-.3-.4-.4-.5zM183.6 33.1H170c-6.1.3-9.6 4.4-9.6 11.2v7.4c0 5.3 1.6 11.6 9.3 11.6 3.1 0 6.2-1.2 8.2-3.3l.6-.6.3.8c.7 1.9 2.3 3.9 8.4 2.8.1 0 .2-.1.2-.2v-4.1c0-.1 0-.1-.1-.2-.1 0-.1-.1-.2-.1-.9.2-1.6.1-2.1-.4-.5-.4-.8-1.2-.8-2.3V33.6c0-.3-.2-.5-.6-.5zm-5.7 21l-.1.1c-1.4 2.2-3.9 3.6-6.2 3.6-4.3 0-4.9-3.3-4.9-6.9v-6.1c0-4.1 1.9-6.5 5.2-6.5h6zM258.8 33.1h-13.6c-6.1.3-9.6 4.4-9.6 11.2v7.4c0 5.3 1.6 11.6 9.3 11.6 3.1 0 6.2-1.2 8.2-3.3l.6-.6.3.8c.7 1.9 2.3 3.9 8.4 2.8.1 0 .2-.1.2-.2v-4.1c0-.1 0-.1-.1-.2-.1 0-.1-.1-.2-.1-.9.2-1.6.1-2.1-.4-.5-.4-.8-1.2-.8-2.3V33.6c-.1-.3-.3-.5-.6-.5zm-5.7 21l-.1.1c-1.4 2.2-3.9 3.6-6.2 3.6-4.3 0-4.9-3.3-4.9-6.9v-6.1c0-4.1 1.9-6.5 5.2-6.5h6zM292.7 61V33.7c0-.3-.2-.5-.5-.5h-5.3c-.3 0-.5.2-.5.5v16.5l-.1.1c-1.4 2.2-3.9 3.6-6.2 3.6-3.2 0-4.8-1.8-4.8-5.4V48 33.6c0-.3-.2-.5-.5-.5h-5.4c-.3 0-.5.2-.5.5v14.8c.1 4.9 1.9 10.8 9.3 10.8 3.1 0 6.2-1.2 8.2-3.3l1-1v1.6c0 5 0 9.7-6.8 9.7-3 0-5.8-.6-8.7-1.8h-.4c-.1 0-.2.1-.3.3l-1.4 3.5c-.1.2 0 .5.2.6 3.2 1.8 6.9 2.7 11.2 2.7 7.5 0 11.5-3.6 11.5-10.5z" fill="#38904d"></path><g fill="#fff"><path d="M90.8 62.7c.3 0 .6-.3.6-.6V37.5c0-.3-.3-.6-.6-.6h-5.1c-.3 0-.6.3-.6.6L85 62.1c0 .2.1.3.2.4s.3.2.4.2zM113.8 37.9v-3.7c0-.3-.3-.6-.6-.6h-4.9v-5.2c0-.3-.3-.6-.6-.6h-5.2c-.3 0-.6.3-.6.6v5.2H98c-.3 0-.6.3-.6.6v3.7c0 .3.3.6.6.6h3.9v23.6c0 .2.1.3.2.4s.3.2.4.2h5.1c.3 0 .6-.3.6-.6V38.5h4.9c.4 0 .7-.3.7-.6zM140.3 49.4v-4.6c0-7.3-4.5-11.7-12-11.7-7.6 0-12.1 4.4-12.1 11.7v6.8c0 7.3 4.5 11.7 12.1 11.7 3.9 0 7.2-1 10.5-3 .3-.2.3-.5.2-.7l-1.8-3.3c-.1-.3-.5-.4-.7-.2-2.1 1.1-4.6 2.1-8.1 2.1-2.7 0-5.8-1.2-5.8-6.7V50h17.2c.3 0 .5-.3.5-.6zm-6.3-3.3h-11.6v-1c0-5.6 3.2-6.8 5.8-6.8s5.7 1.2 5.7 6.8zM41.5 62.7c.2 0 .4-.2.5-.4l8.1-28c0-.2 0-.3-.1-.5-.1-.1-.2-.2-.4-.2h-5.3c-.2 0-.4.2-.5.4l-4.4 19.1c-.1.3-.3.5-.6.5s-.6-.2-.6-.5L32.8 34c-.1-.2-.3-.4-.5-.4h-5.8c-.2 0-.4.2-.5.4l-4.9 19.3c-.1.3-.3.5-.6.5s-.6-.2-.6-.5L15.5 34c-.1-.2-.3-.4-.5-.4H9.5c-.2 0-.3.1-.4.2-.1.2-.2.4-.1.5l8.1 28c.1.2.3.4.5.4h5.8c.2 0 .4-.2.5-.4l4.9-18.9c.1-.3.3-.5.6-.5s.5.2.6.5l5.3 18.9c.1.2.3.4.5.4zM73.1 62.7h5.1c.3 0 .6-.3.6-.6V43.5c0-7.3-2.7-10.4-9.1-10.4-2.5 0-5.3 1.2-7.1 3l-1 1V22.9c0-.3-.3-.6-.6-.6h-5.1c-.3 0-.6.3-.6.6v39.2c0 .3.3.6.6.6H61c.3 0 .6-.3.6-.6V41.9l.1-.2c1.7-2 3.9-3.2 5.9-3.2 3.4 0 4.9 1.7 4.9 5.7v17.9c0 .3.3.6.6.6z"></path><circle cx="308.7" cy="58.4" r="4.8"></circle><circle cx="88.2" cy="26.6" r="4.8"></circle></g></svg>