<svg id="wa-logo" viewBox="0 0 316.66666 90.04553"><path d="M316.337 72.775c0 9.423-7.71 17.132-17.132 17.132h-281.5c-9.422 0-17.132-7.71-17.132-17.132V17.132C.573 7.71 8.283 0 17.705 0h281.5c9.422 0 17.132 7.71 17.132 17.132v55.643z" fill="#fff"></path><path d="M300.445 58.397c0-4.567 3.715-8.282 8.282-8.282V17.014c0-5.5-4.46-9.96-9.96-9.96H158.773c-5.5 0-9.96 4.46-9.96 9.96V72.76c0 5.5 4.46 9.96 9.96 9.96h139.994c5.5 0 9.96-4.46 9.96-9.96v-6.083c-4.567 0-8.282-3.715-8.282-8.281z" fill="#38904d"></path><path d="M231.417 33.275a.508.508 0 0 0-.41-.205h-5.344a.511.511 0 0 0-.5.397l-4.43 19.086a.653.653 0 0 1-1.264.025l-5.262-19.13a.514.514 0 0 0-.495-.378h-5.805a.512.512 0 0 0-.497.386l-4.927 19.328a.652.652 0 0 1-1.268-.013l-4.429-19.302a.511.511 0 0 0-.5-.399h-5.398a.511.511 0 0 0-.494.656l8.068 27.966a.515.515 0 0 0 .492.372h5.76a.513.513 0 0 0 .497-.385l4.875-18.898a.653.653 0 0 1 .628-.49h.004c.294 0 .553.198.629.482l5.264 18.915a.515.515 0 0 0 .494.376h5.834c.227 0 .43-.153.493-.372l8.068-27.966a.507.507 0 0 0-.083-.451zM183.645 33.07l-13.625.034c-6.098.347-9.596 4.415-9.596 11.159v7.36c0 5.292 1.61 11.6 9.28 11.6 3.082 0 6.159-1.238 8.231-3.31l.633-.632.31.838c.705 1.902 2.297 3.937 8.385 2.782a.233.233 0 0 0 .184-.228v-4.09a.21.21 0 0 0-.077-.166.258.258 0 0 0-.212-.05c-.925.175-1.628.051-2.143-.376-.54-.447-.813-1.205-.813-2.251V33.627a.558.558 0 0 0-.557-.557zm-5.716 21.044l-.094.143c-1.42 2.166-3.92 3.62-6.217 3.62-4.325 0-4.921-3.34-4.921-6.948v-6.087c0-4.121 1.899-6.485 5.21-6.485h6.022zM258.792 33.07l-13.625.034c-6.098.347-9.596 4.415-9.596 11.159v7.36c0 5.292 1.61 11.6 9.281 11.6 3.081 0 6.157-1.238 8.231-3.31l.632-.632.311.838c.704 1.903 2.295 3.938 8.384 2.782a.233.233 0 0 0 .185-.228v-4.09a.21.21 0 0 0-.077-.166.259.259 0 0 0-.212-.05c-.926.174-1.628.051-2.145-.376-.54-.448-.812-1.205-.812-2.251V33.627a.558.558 0 0 0-.557-.557zm-5.716 21.044l-.094.143c-1.42 2.166-3.92 3.62-6.218 3.62-4.325 0-4.92-3.34-4.92-6.948v-6.087c0-4.121 1.898-6.485 5.21-6.485h6.022v15.757zM292.681 60.972V33.728a.47.47 0 0 0-.468-.468h-5.335a.47.47 0 0 0-.469.468l-.005 16.518-.094.144c-1.421 2.165-3.92 3.62-6.218 3.62-3.211 0-4.842-1.83-4.847-5.44.004-.161.002-.308.001-.455a16.196 16.196 0 0 1 0-.427v-13.96a.47.47 0 0 0-.47-.468h-5.392a.47.47 0 0 0-.47.468l.006 14.78c.145 4.94 1.869 10.847 9.26 10.847 3.078 0 6.153-1.236 8.226-3.305l.98-.978v1.604c0 4.978 0 9.68-6.767 9.68-3.025 0-5.797-.58-8.724-1.824a.442.442 0 0 0-.344-.001.47.47 0 0 0-.259.258l-1.445 3.5a.461.461 0 0 0 .185.58c3.191 1.764 6.948 2.658 11.167 2.658 7.512 0 11.482-3.65 11.482-10.555z" fill="#fff"></path><g fill="#38904d"><path d="M90.773 62.664a.607.607 0 0 0 .607-.606V37.497a.607.607 0 0 0-.607-.607h-5.062a.608.608 0 0 0-.606.606l-.053 24.56a.6.6 0 0 0 .177.43.602.602 0 0 0 .43.178h5.114zM113.79 37.918v-3.672a.576.576 0 0 0-.576-.576h-4.93v-5.162a.576.576 0 0 0-.576-.576h-5.18a.576.576 0 0 0-.575.576v5.162h-3.945a.576.576 0 0 0-.576.576v3.672c0 .318.258.576.576.576h3.945l-.027 23.562a.6.6 0 0 0 .176.43.602.602 0 0 0 .43.178h5.115a.607.607 0 0 0 .606-.606l.03-23.564h4.931a.576.576 0 0 0 .576-.576zM140.303 49.418v-4.613c0-7.335-4.488-11.714-12.004-11.714-7.554 0-12.063 4.379-12.063 11.714v6.782c0 7.3 4.51 11.657 12.063 11.657 3.889 0 7.228-.963 10.508-3.03a.558.558 0 0 0 .206-.741l-1.765-3.273a.55.55 0 0 0-.727-.233c-2.149 1.094-4.618 2.106-8.107 2.106-2.668 0-5.848-1.166-5.848-6.718V49.97h17.185a.552.552 0 0 0 .552-.552zm-6.273-3.343h-11.58v-1.038c0-5.6 3.18-6.775 5.849-6.775 2.615 0 5.731 1.175 5.731 6.775v1.038zM41.514 62.664c.227 0 .43-.153.493-.371l8.067-27.967a.51.51 0 0 0-.083-.451.51.51 0 0 0-.41-.205h-5.343a.512.512 0 0 0-.5.398l-4.43 19.085a.652.652 0 0 1-.622.505c-.325-.004-.562-.192-.642-.48l-5.262-19.13a.514.514 0 0 0-.495-.378h-5.805a.514.514 0 0 0-.497.387l-4.928 19.327a.65.65 0 1 1-1.267-.014l-4.429-19.3a.51.51 0 0 0-.5-.4H9.462a.509.509 0 0 0-.41.205.509.509 0 0 0-.083.451l8.067 27.967a.515.515 0 0 0 .494.37h5.759a.513.513 0 0 0 .497-.384L28.66 43.38a.653.653 0 0 1 .625-.489h.007c.292 0 .55.196.628.477l5.264 18.92a.515.515 0 0 0 .495.375h5.834zM73.084 62.664h5.144a.565.565 0 0 0 .564-.564V43.472c0-7.276-2.723-10.381-9.106-10.381-2.532 0-5.33 1.163-7.13 2.962l-.979.979V22.927a.564.564 0 0 0-.564-.564H55.87a.564.564 0 0 0-.564.564V62.1c0 .311.253.564.564.564h5.144a.564.564 0 0 0 .564-.564V41.87l.138-.162c1.694-1.976 3.916-3.156 5.942-3.156 3.363 0 4.863 1.75 4.863 5.674V62.1c0 .311.253.564.564.564z"></path></g><circle cx="308.727" cy="58.397" fill="#34924c" r="4.841"></circle><circle cx="88.237" cy="26.631" fill="#38904d" r="4.841"></circle></svg>